<svg width="14" height="7" viewBox="0 0 14 7" fill="none" xmlns="http://www.w3.org/2000/svg">
<path d="M1.35962 0.278109C1.29852 0.22037 1.22665 0.175231 1.1481 0.145269C1.06955 0.115307 0.985876 0.101109 0.901843 0.103486C0.817809 0.105863 0.735067 0.124769 0.65834 0.159123C0.581613 0.193477 0.512404 0.242608 0.454665 0.303709C0.396925 0.364811 0.351786 0.436687 0.321824 0.515233C0.291862 0.59378 0.277664 0.677458 0.280041 0.761491C0.282418 0.845525 0.301324 0.928267 0.335678 1.00499C0.370033 1.08172 0.419163 1.15093 0.480265 1.20867L6.24026 6.64867C6.35909 6.76101 6.51642 6.82361 6.67994 6.82361C6.84347 6.82361 7.0008 6.76101 7.11962 6.64867L12.8803 1.20867C12.9427 1.15131 12.9931 1.08212 13.0286 1.00511C13.0641 0.928099 13.0839 0.844809 13.0869 0.760077C13.0899 0.675345 13.076 0.590858 13.0461 0.511526C13.0162 0.432194 12.9708 0.359596 12.9126 0.297951C12.8544 0.236306 12.7845 0.186842 12.707 0.152431C12.6296 0.118021 12.546 0.0993505 12.4612 0.0975044C12.3765 0.0956584 12.2922 0.110673 12.2133 0.141677C12.1344 0.172682 12.0624 0.219057 12.0015 0.278109L6.67994 5.30339L1.35962 0.278109Z" fill="#171717"/>
</svg>
