<svg width="70" height="71" viewBox="0 0 70 71" fill="none" xmlns="http://www.w3.org/2000/svg">
<path d="M31.5055 0.179718C22.3101 1.1664 13.9781 5.56539 8.11276 12.5544C3.98786 17.4605 1.42522 23.0243 0.287784 29.5474C0.027408 31.0411 0 31.7674 0 35.166C0 38.5646 0.027408 39.2909 0.287784 40.7847C1.57596 48.1848 4.67306 54.3105 9.78465 59.6139C15.0333 65.0681 21.6523 68.5215 29.3814 69.8782C30.8751 70.1386 31.6014 70.166 35 70.166C39.2893 70.166 40.5775 70.029 43.9487 69.1656C56.0356 66.0411 65.8751 56.2016 68.9996 44.1147C69.863 40.7435 70 39.4554 70 35.166C70 30.8767 69.863 29.5885 68.9996 26.2173C65.8751 14.1441 56.0356 4.29092 43.9487 1.1664C40.8379 0.371574 39.3716 0.193428 35.5482 0.152313C33.6296 0.124908 31.807 0.138611 31.5055 0.179718ZM38.7138 27.4644C49.2247 34.2204 49.5262 34.4397 49.5262 35.166C49.5262 35.8923 49.2247 36.1116 38.7138 42.8677C28.9154 49.1715 28.1754 49.6237 27.6135 49.6237C26.8735 49.61 26.4213 49.1578 26.298 48.2944C26.2569 47.9655 26.2294 41.8399 26.2569 34.6864C26.298 22.3802 26.3117 21.6402 26.5446 21.2839C26.8461 20.8316 27.2435 20.6398 27.8054 20.6809C28.0795 20.7083 31.711 22.9558 38.7138 27.4644Z" fill="#5DC4FF"/>
</svg>
