<svg width="358" height="85" viewBox="0 0 358 85" fill="none" xmlns="http://www.w3.org/2000/svg">
<rect width="358" height="85" rx="42.5" fill="white"/>
<path d="M43 15.375C31.8159 15.375 22.75 24.4409 22.75 35.625C22.75 41.215 25.015 46.2765 28.6782 49.9407C32.3424 53.607 40.975 58.9125 41.4813 64.4813C41.5572 65.3162 42.1616 66 43 66C43.8384 66 44.4428 65.3162 44.5187 64.4813C45.025 58.9125 53.6576 53.607 57.3218 49.9407C60.985 46.2765 63.25 41.215 63.25 35.625C63.25 24.4409 54.1841 15.375 43 15.375Z" fill="#FF4433"/>
<path d="M43.0001 42.7131C46.9144 42.7131 50.0875 39.5399 50.0875 35.6256C50.0875 31.7113 46.9144 28.5381 43.0001 28.5381C39.0858 28.5381 35.9126 31.7113 35.9126 35.6256C35.9126 39.5399 39.0858 42.7131 43.0001 42.7131Z" fill="white"/>
<path d="M107.672 58V51.76H90.44V46.528L106.232 24.016H114.536V45.52H118.376V51.76H114.536V58H107.672ZM98.312 45.52H107.672V31.6L98.312 45.52ZM126.706 58.624C125.554 58.624 124.578 58.272 123.778 57.568C122.978 56.864 122.578 55.856 122.578 54.544C122.578 53.2 122.978 52.144 123.778 51.376C124.61 50.608 125.586 50.224 126.706 50.224C127.826 50.224 128.786 50.608 129.586 51.376C130.386 52.112 130.786 53.152 130.786 54.496C130.786 55.84 130.386 56.864 129.586 57.568C128.786 58.272 127.826 58.624 126.706 58.624ZM148.126 58.384C146.526 58.384 145.038 58.192 143.662 57.808C142.286 57.392 141.054 56.768 139.966 55.936C138.91 55.104 138.014 54.048 137.278 52.768C136.574 51.488 136.094 49.968 135.838 48.208H142.606C142.798 48.848 143.15 49.456 143.662 50.032C144.174 50.608 144.814 51.072 145.582 51.424C146.382 51.776 147.278 51.952 148.27 51.952C149.486 51.952 150.51 51.744 151.342 51.328C152.174 50.88 152.814 50.272 153.262 49.504C153.71 48.736 153.934 47.824 153.934 46.768C153.934 45.168 153.422 43.888 152.398 42.928C151.406 41.936 149.998 41.44 148.174 41.44C147.118 41.44 146.126 41.632 145.198 42.016C144.302 42.368 143.438 42.864 142.606 43.504H136.75L137.374 24.016H159.742V30.304H143.854L143.47 37.216C144.43 36.544 145.534 36.08 146.782 35.824C148.062 35.536 149.326 35.408 150.574 35.44C152.782 35.504 154.654 35.984 156.19 36.88C157.726 37.776 158.894 39.024 159.694 40.624C160.526 42.224 160.942 44.096 160.942 46.24C160.942 48.832 160.366 51.04 159.214 52.864C158.094 54.688 156.558 56.064 154.606 56.992C152.686 57.92 150.526 58.384 148.126 58.384Z" fill="#3C3C3C"/>
<path d="M183.5 32V17.84H187.28L191.1 24.68L194.86 17.84H198.52V32H195.64V21.64L191.62 28.84H190.44L186.36 21.64V32H183.5ZM201.127 32V21.46H203.947V24.84H205.507C206.107 24.84 206.661 24.8933 207.167 25C207.687 25.1067 208.141 25.2933 208.527 25.56C208.914 25.8133 209.214 26.1667 209.427 26.62C209.641 27.06 209.747 27.6267 209.747 28.32C209.747 28.9867 209.621 29.56 209.367 30.04C209.127 30.5067 208.794 30.8867 208.367 31.18C207.941 31.46 207.454 31.6667 206.907 31.8C206.374 31.9333 205.814 32 205.227 32H201.127ZM203.947 29.54H204.767C205.087 29.54 205.374 29.5267 205.627 29.5C205.894 29.4733 206.127 29.42 206.327 29.34C206.541 29.26 206.701 29.1467 206.807 29C206.914 28.84 206.967 28.6333 206.967 28.38C206.967 28.1267 206.921 27.9267 206.827 27.78C206.734 27.62 206.607 27.5 206.447 27.42C206.287 27.34 206.101 27.2867 205.887 27.26C205.687 27.22 205.474 27.2 205.247 27.2H203.947V29.54ZM211.027 32V21.46H213.807V32H211.027ZM221.674 32V21.46H224.474V25.52H228.454V21.46H231.254V32H228.454V28.02H224.474V32H221.674ZM236.672 32.14C236.218 32.14 235.778 32.08 235.352 31.96C234.925 31.8267 234.538 31.6267 234.192 31.36C233.858 31.0933 233.592 30.76 233.392 30.36C233.192 29.96 233.092 29.4933 233.092 28.96C233.092 28.24 233.238 27.6667 233.532 27.24C233.825 26.8 234.218 26.4667 234.712 26.24C235.205 26.0133 235.772 25.86 236.412 25.78C237.065 25.7 237.738 25.66 238.432 25.66H239.952C239.952 25.2733 239.878 24.9333 239.732 24.64C239.598 24.3333 239.392 24.1 239.112 23.94C238.832 23.7667 238.472 23.68 238.032 23.68C237.752 23.68 237.478 23.72 237.212 23.8C236.958 23.8667 236.745 23.9667 236.572 24.1C236.398 24.2333 236.285 24.4067 236.232 24.62H233.392C233.472 24.0333 233.658 23.5333 233.952 23.12C234.245 22.6933 234.612 22.3467 235.052 22.08C235.492 21.8133 235.972 21.62 236.492 21.5C237.025 21.3667 237.572 21.3 238.132 21.3C239.158 21.3 239.998 21.4933 240.652 21.88C241.318 22.2667 241.812 22.8333 242.132 23.58C242.465 24.3267 242.632 25.24 242.632 26.32V32H240.112L240.072 30.76C239.765 31.12 239.425 31.4067 239.052 31.62C238.692 31.82 238.312 31.9533 237.912 32.02C237.512 32.1 237.098 32.14 236.672 32.14ZM237.432 29.92C237.912 29.92 238.345 29.8267 238.732 29.64C239.118 29.44 239.418 29.18 239.632 28.86C239.858 28.5267 239.972 28.16 239.972 27.76V27.54H238.052C237.758 27.54 237.478 27.5533 237.212 27.58C236.958 27.6067 236.725 27.66 236.512 27.74C236.312 27.8067 236.152 27.92 236.032 28.08C235.925 28.2267 235.872 28.4267 235.872 28.68C235.872 28.96 235.938 29.1933 236.072 29.38C236.218 29.5667 236.412 29.7067 236.652 29.8C236.892 29.88 237.152 29.92 237.432 29.92ZM249.803 32L252.663 28.06C251.997 27.86 251.45 27.4933 251.023 26.96C250.597 26.4133 250.383 25.76 250.383 25C250.383 24.2933 250.497 23.7133 250.723 23.26C250.95 22.7933 251.263 22.4333 251.663 22.18C252.077 21.9133 252.543 21.7267 253.063 21.62C253.583 21.5133 254.137 21.46 254.723 21.46H259.683V32H256.903V28.6H255.323L253.103 32H249.803ZM255.363 26.3H256.903V23.86H254.863C254.597 23.86 254.357 23.88 254.143 23.92C253.943 23.96 253.77 24.0267 253.623 24.12C253.477 24.2133 253.363 24.34 253.283 24.5C253.203 24.6467 253.163 24.8267 253.163 25.04C253.163 25.32 253.23 25.5467 253.363 25.72C253.51 25.88 253.69 26 253.903 26.08C254.117 26.16 254.35 26.22 254.603 26.26C254.87 26.2867 255.123 26.3 255.363 26.3ZM261.909 32V21.46H264.709V25.52H268.689V21.46H271.489V32H268.689V28.02H264.709V32H261.909ZM272.866 34.96V29.5C273.186 29.5 273.453 29.42 273.666 29.26C273.893 29.0867 274.073 28.86 274.206 28.58C274.353 28.3 274.466 27.9867 274.546 27.64C274.639 27.28 274.713 26.9133 274.766 26.54C274.846 25.94 274.893 25.3267 274.906 24.7C274.933 24.06 274.946 23.48 274.946 22.96C274.946 22.7067 274.946 22.46 274.946 22.22C274.946 21.9667 274.946 21.7133 274.946 21.46H283.446V29.5H284.766V34.96H282.006V32H275.646V34.96H272.866ZM276.706 29.5H280.646V23.96H277.446C277.446 24.4 277.439 24.8733 277.426 25.38C277.413 25.8867 277.386 26.3733 277.346 26.84C277.319 27.12 277.286 27.4133 277.246 27.72C277.206 28.0267 277.146 28.3333 277.066 28.64C276.986 28.9467 276.866 29.2333 276.706 29.5ZM290.967 32.14C289.86 32.14 288.92 31.92 288.147 31.48C287.374 31.04 286.78 30.42 286.367 29.62C285.954 28.8067 285.747 27.86 285.747 26.78C285.747 25.6867 285.96 24.7333 286.387 23.92C286.814 23.0933 287.414 22.4467 288.187 21.98C288.974 21.5133 289.9 21.28 290.967 21.28C291.754 21.28 292.447 21.4133 293.047 21.68C293.66 21.9467 294.174 22.32 294.587 22.8C295.014 23.2667 295.334 23.82 295.547 24.46C295.76 25.0867 295.86 25.7733 295.847 26.52C295.834 26.7067 295.82 26.8867 295.807 27.06C295.807 27.2333 295.787 27.4067 295.747 27.58H288.527C288.567 27.98 288.68 28.3467 288.867 28.68C289.054 29.0133 289.314 29.28 289.647 29.48C289.994 29.6667 290.42 29.76 290.927 29.76C291.26 29.76 291.567 29.7267 291.847 29.66C292.127 29.58 292.367 29.46 292.567 29.3C292.767 29.14 292.907 28.9533 292.987 28.74H295.747C295.574 29.5267 295.247 30.1733 294.767 30.68C294.3 31.1867 293.734 31.56 293.067 31.8C292.4 32.0267 291.7 32.14 290.967 32.14ZM288.587 25.62H293.167C293.154 25.26 293.06 24.9267 292.887 24.62C292.727 24.3 292.48 24.0467 292.147 23.86C291.827 23.66 291.414 23.56 290.907 23.56C290.4 23.56 289.974 23.66 289.627 23.86C289.294 24.06 289.04 24.32 288.867 24.64C288.707 24.9467 288.614 25.2733 288.587 25.62ZM297.651 32V21.46H300.451V25.5H302.051L304.631 21.46H307.791L304.491 26.42L307.811 32H304.591L302.211 28H300.451V32H297.651ZM313.601 32.14C312.521 32.14 311.595 31.92 310.821 31.48C310.061 31.04 309.481 30.42 309.081 29.62C308.681 28.8067 308.481 27.8533 308.481 26.76C308.481 25.6533 308.688 24.6933 309.101 23.88C309.515 23.0533 310.108 22.4133 310.881 21.96C311.668 21.5067 312.615 21.28 313.721 21.28C314.575 21.28 315.335 21.4333 316.001 21.74C316.668 22.0467 317.201 22.4867 317.601 23.06C318.015 23.6333 318.255 24.34 318.321 25.18H315.581C315.461 24.7133 315.228 24.3733 314.881 24.16C314.548 23.9467 314.148 23.84 313.681 23.84C313.055 23.84 312.568 23.9867 312.221 24.28C311.875 24.5733 311.628 24.9467 311.481 25.4C311.335 25.8533 311.261 26.3 311.261 26.74C311.261 27.2333 311.341 27.7 311.501 28.14C311.661 28.58 311.915 28.94 312.261 29.22C312.621 29.4867 313.088 29.62 313.661 29.62C314.141 29.62 314.561 29.5133 314.921 29.3C315.281 29.0733 315.515 28.7267 315.621 28.26H318.421C318.355 29.1267 318.095 29.8467 317.641 30.42C317.188 30.9933 316.608 31.4267 315.901 31.72C315.208 32 314.441 32.14 313.601 32.14Z" fill="#3C3C3C"/>
<path d="M194.59 45.0004C194.945 44.2193 196.055 44.2193 196.41 45.0004L199.042 50.7856C199.188 51.1055 199.491 51.3255 199.84 51.3651L206.155 52.0808C207.008 52.1774 207.351 53.2327 206.718 53.8121L202.029 58.1032C201.77 58.3405 201.654 58.6965 201.725 59.0409L202.996 65.2683C203.167 66.1092 202.27 66.7614 201.523 66.3383L195.993 63.2053C195.687 63.032 195.313 63.032 195.007 63.2053L189.477 66.3383C188.73 66.7614 187.833 66.1092 188.004 65.2683L189.275 59.0409C189.346 58.6965 189.23 58.3405 188.971 58.1032L184.282 53.8121C183.649 53.2327 183.992 52.1774 184.845 52.0808L191.16 51.3651C191.509 51.3255 191.812 51.1055 191.958 50.7856L194.59 45.0004Z" fill="#E2CE3D"/>
<path d="M225.59 45.0004C225.945 44.2193 227.055 44.2193 227.41 45.0004L230.042 50.7856C230.188 51.1055 230.491 51.3255 230.84 51.3651L237.155 52.0808C238.008 52.1774 238.351 53.2327 237.718 53.8121L233.029 58.1032C232.77 58.3405 232.654 58.6965 232.725 59.0409L233.996 65.2683C234.167 66.1092 233.27 66.7614 232.523 66.3383L226.993 63.2053C226.687 63.032 226.313 63.032 226.007 63.2053L220.477 66.3383C219.73 66.7614 218.833 66.1092 219.004 65.2683L220.275 59.0409C220.346 58.6965 220.23 58.3405 219.971 58.1032L215.282 53.8121C214.649 53.2327 214.992 52.1774 215.845 52.0808L222.16 51.3651C222.509 51.3255 222.812 51.1055 222.958 50.7856L225.59 45.0004Z" fill="#E2CE3D"/>
<path d="M256.59 45.0004C256.945 44.2193 258.055 44.2193 258.41 45.0004L261.042 50.7856C261.188 51.1055 261.491 51.3255 261.84 51.3651L268.155 52.0808C269.008 52.1774 269.351 53.2327 268.718 53.8121L264.029 58.1032C263.77 58.3405 263.654 58.6965 263.725 59.0409L264.996 65.2683C265.167 66.1092 264.27 66.7614 263.523 66.3383L257.993 63.2053C257.687 63.032 257.313 63.032 257.007 63.2053L251.477 66.3383C250.73 66.7614 249.833 66.1092 250.004 65.2683L251.275 59.0409C251.346 58.6965 251.23 58.3405 250.971 58.1032L246.282 53.8121C245.649 53.2327 245.992 52.1774 246.845 52.0808L253.16 51.3651C253.509 51.3255 253.812 51.1055 253.958 50.7856L256.59 45.0004Z" fill="#E2CE3D"/>
<path d="M287.59 45.0004C287.945 44.2193 289.055 44.2193 289.41 45.0004L292.042 50.7856C292.188 51.1055 292.491 51.3255 292.84 51.3651L299.155 52.0808C300.008 52.1774 300.351 53.2327 299.718 53.8121L295.029 58.1032C294.77 58.3405 294.654 58.6965 294.725 59.0409L295.996 65.2683C296.167 66.1092 295.27 66.7614 294.523 66.3383L288.993 63.2053C288.687 63.032 288.313 63.032 288.007 63.2053L282.477 66.3383C281.73 66.7614 280.833 66.1092 281.004 65.2683L282.275 59.0409C282.346 58.6965 282.23 58.3405 281.971 58.1032L277.282 53.8121C276.649 53.2327 276.992 52.1774 277.845 52.0808L284.16 51.3651C284.509 51.3255 284.812 51.1055 284.958 50.7856L287.59 45.0004Z" fill="#E2CE3D"/>
<path d="M318.59 45.0004C318.945 44.2193 320.055 44.2193 320.41 45.0004L323.042 50.7856C323.188 51.1055 323.491 51.3255 323.84 51.3651L330.155 52.0808C331.008 52.1774 331.351 53.2327 330.718 53.8121L326.029 58.1032C325.77 58.3405 325.654 58.6965 325.725 59.0409L326.996 65.2683C327.167 66.1092 326.27 66.7614 325.523 66.3383L319.993 63.2053C319.687 63.032 319.313 63.032 319.007 63.2053L313.477 66.3383C312.73 66.7614 311.833 66.1092 312.004 65.2683L313.275 59.0409C313.346 58.6965 313.23 58.3405 312.971 58.1032L308.282 53.8121C307.649 53.2327 307.992 52.1774 308.845 52.0808L315.16 51.3651C315.509 51.3255 315.812 51.1055 315.958 50.7856L318.59 45.0004Z" fill="#D4D4D4"/>
<path d="M313.477 66.3383L319.007 63.2052C319.16 63.1186 319.33 63.0753 319.5 63.0753V44.4146C319.134 44.4146 318.768 44.6099 318.59 45.0004L315.958 50.7855C315.812 51.1054 315.509 51.3254 315.16 51.365L308.845 52.0807C307.992 52.1774 307.649 53.2327 308.282 53.8121L312.971 58.1032C313.23 58.3405 313.346 58.6965 313.275 59.0408L312.005 65.2683C311.833 66.1092 312.731 66.7614 313.477 66.3383Z" fill="#E2CE3D"/>
</svg>
